# xmcd CD database file
#
# Track frame offsets:
#	150
#	17875
#	35565
#	58215
#	81530
#	98870
#	126135
#	150250
#	172560
#	193720
#	209805
#	231353
#	250466
#	269179
#
# Disc length: 3812 seconds
#
# Revision: 0
# Processed by: cddbd v1.4PL0 Copyright (c) Steve Scherf et al.
# Submitted via: CDex 1.51
#
DISCID=cd0ee20e
DTITLE=Tom Grant - Solo Piano
DYEAR=2003
DGENRE=Jazz
TTITLE0=Love Deluxe
TTITLE1=Home Town Boy
TTITLE2=Sighs and Whispers
TTITLE3=Fixed Not Broken
TTITLE4=Old Fashioned Girl
TTITLE5=Celia
TTITLE6=One Good Turn
TTITLE7=Meditation #1
TTITLE8=Safe Harbor
TTITLE9=In My Body Out of My Mind
TTITLE10=Meditation #2
TTITLE11=2:30 AM.
TTITLE12=Outer Planets
TTITLE13=Meditation #3
EXTD=YEAR: 2003
EXTT0=
EXTT1=
EXTT2=
EXTT3=
EXTT4=
EXTT5=
EXTT6=
EXTT7=
EXTT8=
EXTT9=
EXTT10=
EXTT11=
EXTT12=
EXTT13=
PLAYORDER=
